<svg xmlns="http://www.w3.org/2000/svg" width="421" height="409" viewBox="0 0 421 409"><defs><linearGradient id="r9vwa" x1="-1317" x2="-1317" y1="-610" y2="-610" gradientUnits="userSpaceOnUse"><stop offset="0" stop-color="#0aa278"/><stop offset="1" stop-color="#043c2c"/></linearGradient></defs><g><g><g><g><g><path fill="#f8cdba" d="M361.203 176.812c.559 1.597 5.977 9.074 8.01 12.381 2.033 3.307 5.444 13.035 2.452 14.632-2.993 1.597-8.01.427-9.598-4.694-1.588-5.122-6.98-16.665-8.864-19.195-1.885-2.53 8-3.124 8-3.124z"/></g><g><path fill="#f8cdba" d="M157.797 24.858C155.171 22.362 133.908 0 133.7 0c-1.98.48-3.28 1.44-1.841 3.49.558.794 3.926 4.52 7.852 8.725a7.486 7.486 0 0 0 4.834 13.21 7.643 7.643 0 0 0 1.806-.236l3.377 4.005 5.017-2.042-.672-.741z"/></g><g><path fill="#1f161e" d="M190.883 283.755c.06 1.116 2.067 10.286 1.177 11.438-1.614 2.094-15.565 1.92-16.254 1.3-.69-.62-1.152-1.963-.594-2.382.559-.419 6.038-1.84 6.754-2.4.715-.558 1.614-3.376 1.143-4.842"/></g><g><path fill="#1f161e" d="M287.573 152.155c6.108 4.293 67.183 184.84 66.188 187.701-.995 2.862-7.957 4.45-10.47 2.862-2.513-1.588-49.95-87.503-52.498-90.05-2.548-2.548-39.778-41.357-44.864-56.635-5.087-15.277 41.644-43.878 41.644-43.878z"/></g><g><path fill="#73e5e2" d="M279.066 141.895c3.865 2.024 15.094 13.087 15.094 24.857 0 33.251-30.537 39.96-41.426 39.769-10.889-.192-55.884 1.684-72.915-4.048.733 6.447 6.448 64.626 11.788 81.57-1.292 2.39-8.01 4.502-9.214 3.49-9.667-7.853-38.19-90.81-37.64-96.639 1.24-13.157 127.237-47.29 134.313-49z"/></g><g><path fill="#f8cdba" d="M241.985 84.057c-.55 2.39 12.59 5.627 13.192 3.053l3.717-16.036-13.192-3.019z"/></g><g><path d="M256.67 80.654c.33-1.43-1.79-7.102-4.494-6.85 3.35-.383 5.758-3.76 6.718-2.73z"/></g><g><path fill="#f8cdba" d="M231.576 56.468c0-9.714 7.875-17.59 17.59-17.59 9.714 0 17.59 7.876 17.59 17.59 0 9.715-7.876 17.59-17.59 17.59-9.715 0-17.59-7.875-17.59-17.59z"/></g><g><path fill="#fa9e9f" d="M230.964 56.24c-1.577-.366-2.702-1.328-2.511-2.15.19-.821 1.623-1.19 3.2-.825 1.578.366 2.702 1.328 2.512 2.15-.19.82-1.624 1.19-3.201.825z"/></g><g><path fill="#fa9e9f" d="M248.927 60.4c-1.577-.365-2.701-1.327-2.51-2.148.19-.822 1.622-1.192 3.2-.826 1.577.366 2.701 1.328 2.51 2.15-.19.82-1.623 1.19-3.2.825z"/></g><g><path fill="none" stroke="#1f161e" stroke-linecap="round" stroke-miterlimit="20" stroke-width=".69" d="M239.001 53.284c-.715.637-4.197 3.202-1.605 5.174"/></g><g><path fill="none" stroke="#1f161e" stroke-linecap="round" stroke-miterlimit="20" stroke-width=".69" d="M242.29 63.535c.873.166 2.435-.567 3.36-1.36"/></g><g><path d="M257.76 53.842c.043-3.97-13.873-13.131-20.574-10.278a17.59 17.59 0 0 1 27.1 21.812c-1.885-1.683-6.526-7.791-6.526-11.534z"/></g><g><path fill="#f8cdba" d="M257.533 58.379a3.874 3.874 0 1 1 7.748 0 3.874 3.874 0 0 1-7.748 0z"/></g><g><path fill="#0dbc8e" d="M156.384 23.558c1.867 1.64 38.913 38.267 45.17 39.786 21.079 5.112 89.291 25.538 112.552 44.235 24.29 14.955 50.081 67.645 49.148 69.512-.934 1.868-11.238 6.317-13.34 5.384-2.103-.934-30.896-40.79-35.346-43.329-4.45-2.539-39.079-19.63-39.079-19.63 1.632 3.978 6.317 20.834 5.61 23.173-.707 2.338-15.792 12.485-43.293 14.98-2.81-1.64-11.003-49.147-11.003-49.147-5.854-2.618-44.593-23.235-53.126-33.94-3.307-4.154-28.322-42.596-28.322-44.498 0-1.902 11.029-6.526 11.029-6.526z"/></g><g><path fill="none" stroke="#1f161e" stroke-linecap="round" stroke-miterlimit="20" stroke-width=".55" d="M245.1 117.665c-2.435-.994-18.148-9.187-18.148-9.187"/></g><g><path fill="none" stroke="#1f161e" stroke-linecap="round" stroke-miterlimit="20" stroke-width=".55" d="M259.356 81.85c1.658 2.015 13.402 26.34 16.133 37.962"/></g><g><path fill="#1f161e" d="M352.444 339.682c.95.872 3.254 4.738 3.367 6.177.568 6.893-6.892 17.633-8.096 17.642-3.49 0-5.297-1.85-5.297-4.013 0-2.164 2.618-4.808 2.618-6.256 0-1.448-.323-10.104-.567-11.386"/></g></g></g><g><g opacity=".94"><g opacity=".94"><path fill="url(#r9vwa)" d="M.61 408.822c0-11.444 38.86-51.298 105.148-51.298 64.757 0 79.638 12.678 133.378 12.678 40.139 0 37.396-8.452 75.066-8.452 76.964 0 106.908 32.611 106.908 47.109z"/></g></g></g><g><g><g><path fill="#028a66" d="M118.09 228.93c15.436 7.022 17.193 33.032 14.39 38.851-4.48 9.292-20.79 22.731-25.177 32.007-1.883 3.98-17.779 45.493-32.614 40.65-13.182-4.33-20.393-23.41-12.947-36.686 10.981-19.635 15.405-45.817 19.295-52.813 5.135-9.208 22.046-28.838 37.053-22.01z"/></g><g><path fill="none" stroke="#fbdc8e" stroke-linecap="round" stroke-miterlimit="20" stroke-width="3" d="M69.173 380.095c0-9.506 5.752-85.572 33.11-116.648"/></g><g><path fill="none" stroke="#fbdc8e" stroke-linecap="round" stroke-miterlimit="20" stroke-width="3" d="M92.541 277.858l-5.924-22.663"/></g></g></g></g></g></svg>