<svg id="Camada_3" data-name="Camada 3" xmlns="http://www.w3.org/2000/svg" viewBox="0 0 3200 2000"><defs><style>.cls-1{fill:#09644b;}.cls-2{fill:#aaca4a;}</style></defs><title>Logo Atlântida Global</title><path class="cls-1" d="M595.45,1221.39a4,4,0,0,1-4-4V933.2a4,4,0,1,1,7.95,0v284.21A4,4,0,0,1,595.45,1221.39Z"/><path class="cls-2" d="M532.93,1075.31a182.47,182.47,0,0,1-364.93,0c0-100.77,81.69-182.47,182.46-182.47,2.12,0,4.24,0,6.34.11a182.23,182.23,0,0,1,176.13,182.36Z"/><path class="cls-1" d="M244.15,996.83a4.28,4.28,0,0,0,2,4.31,12.44,12.44,0,0,0,4.74,1.63,88.94,88.94,0,0,0,14.31,2.07,8.34,8.34,0,0,0,4.69-.83c1.37-.84,2.23-2.73,1.43-4.13-1-1.8-3.62-1.54-5.7-1.59C261,998.19,246.22,988.64,244.15,996.83Z"/><path class="cls-1" d="M261.68,1017.51c3.12-.34,6.14,1.11,9.26,1.44s7-1.29,7.08-4.42a4.8,4.8,0,0,0-2.92-4.19,11.38,11.38,0,0,0-5.28-.82,14.77,14.77,0,0,0-7,1.61,6.67,6.67,0,0,0-3.55,5.89l2.87.06Z"/><path class="cls-1" d="M391.53,902.48c-.85,4.18-4.83,6.94-8.73,8.67s-8.19,3-11.16,6.08c-3.56,3.67-4.93,9.62-9.61,11.68a2.92,2.92,0,0,1-2.1.25,3.38,3.38,0,0,1-1.24-.92c-7-7.26-12-24.35-4.66-33.21a8.5,8.5,0,0,1,2.32-1.92h0l.44-.16a181.89,181.89,0,0,1,31.36,3.79c.53.48.87.78.92.81a5.52,5.52,0,0,1,2.37,2.53A4.35,4.35,0,0,1,391.53,902.48Z"/><path class="cls-1" d="M382.69,920.24a7.79,7.79,0,0,0-5.91,2.07,5.75,5.75,0,0,0-1.47,5.92c1.26,3.39,5.5,4.35,9.08,4.8a8.72,8.72,0,0,0,3.94-.1,3,3,0,0,0,2.16-3c-.12-.86-.75-1.59-.82-2.45-.19-2.22,3.19-4.29,1.83-6a28.46,28.46,0,0,0-9.73-1.43Z"/><path class="cls-1" d="M425,947.23c-1.38,1.62-3.61,3.26-3,5.29s3.46,2.12,5.53,2.73a7.29,7.29,0,0,1,4.83,4.81c.37,1.28.49,2.81,1.59,3.56a4.28,4.28,0,0,0,2,.54c2,.17,4.48.13,5.52-1.6a4.8,4.8,0,0,0,.53-2.4c.07-5.62-2.71-11-6.71-14.95C429.23,939.23,428.81,942.7,425,947.23Z"/><path class="cls-1" d="M343.64,895a10.38,10.38,0,0,0-2.75-1.74A182.23,182.23,0,0,0,201.48,970q-4,5.68-7.65,11.7a61,61,0,0,0,1.75,13.51,13.24,13.24,0,0,0,2.29,5.33c2.15,2.62,5.77,3.44,8.53,5.4,2.95,2.08,4.8,5.35,6.55,8.51l13.74,24.75c1.8,3.25,3.66,6.73,3.44,10.44-.34,5.79-5.45,9.93-8.86,14.61a28.65,28.65,0,0,0-1.12,31.35c2.83,4.51,6.9,8.15,9.8,12.58h-.09l12.84,95.25h18.4s15.2-42.38,32.54-50.09,37.45-27.39,46-45.16h0a11.79,11.79,0,0,0,.54-7.07c-2.92-12.34-22.08-11.81-29.58-22-3.47-4.74-3.85-11.08-6.64-16.25-3.39-6.28-9.91-10.13-16.12-13.67l-28.49-16.24a14.93,14.93,0,0,0-6.13-2.38c-6.93-.5-12.2,8.39-19,7.16-5.39-1-7.57-7.49-8-12.94s-.6-11.74-4.89-15.14c1.69-3.59,8.91-4,7.89-7.84-.75-2.86-4.91-2.09-7.86-2.33-4.87-.39-8.34-5.57-8.15-10.45s3.2-9.24,6.82-12.52c4.48-4.05,10.28-6.93,16.32-6.85s12.2,3.55,14.42,9.17c.9,2.27,1.17,4.83,2.61,6.8s4.8,2.84,6.2.84c-2.67-5.46-.45-12.31,3.73-16.72s9.95-6.9,15.58-9.19A228.8,228.8,0,0,1,311,949.61a144.74,144.74,0,0,1,18.73-3.28c2.19-.23,4.49-.46,6.3-1.71a6.56,6.56,0,0,0,1.78-8.48c-.82-1.33-2.17-2.51-2.14-4.06s1.47-2.7,2.34-4c2.44-3.67-.09-9.11-4.17-10.8s-8.84-.39-12.57,2-6.73,5.69-10.07,8.56c-2.36,2-5.37,4-8.4,3.24-4.42-1-5.7-7.3-3.42-11.22s6.69-6,10.84-7.89c5.8-2.62,12.42-5.27,18.34-2.92,1.9.75,3.59,2,5.54,2.64A9.79,9.79,0,0,0,343.64,895Z"/><path class="cls-1" d="M260.53,1203.44H242.6a46.1,46.1,0,0,0,1.53,4.75c1.31,3.38,10.32,19.69,16.28,14.31,2.09-1.89-1.47-9-1.39-11.76A23.36,23.36,0,0,1,260.53,1203.44Z"/><path class="cls-1" d="M449.46,1210.8a10.06,10.06,0,0,0-.33,6.38c1.26,3.58,5,5.06,9,5.49a183.49,183.49,0,0,0,22.24-19.23H453.19A31.08,31.08,0,0,0,449.46,1210.8Z"/><path class="cls-1" d="M529.86,1108.16A182.71,182.71,0,0,0,450.45,922.9c-9,.65-16.27,3.05-16.44,9-.11,3.85,3.45,6.68,6.7,8.73,5.34,3.37,11,6.61,14.7,11.74s4.74,12.82.52,17.51c-3.54,3.92-9.34,4.52-14.37,6.16s-10.31,6.1-8.94,11.2c.77,2.85,3.38,4.74,5.81,6.4,3.21,2.2,6.58,4.45,10.43,5s8.32-1.22,9.57-4.91c.57-1.68.43-3.58,1.22-5.18,1.48-3,5.75-3.56,8.66-2s4.69,4.61,6,7.65c.49,1.12,1,2.38,2.17,2.84a5.39,5.39,0,0,0,3.17-.15c5.91-1.22,11.83,1.53,17.23,4.21,8.6,4.26,18.53,10.69,17.93,20.26-5.19,2.14-11.21.56-16.13-2.16s-9.18-6.5-14.12-9.17c-12.09-6.56-26.89-5.81-40.23-2.44-7.57,1.92-15.1,4.71-21.2,9.59s-10.65,12.14-10.87,19.95c-.08,2.64.33,5.3-.15,7.89-.51,2.75-2,5.21-3,7.81-3.94,10.08-.7,22.14,6.66,30.09s18.24,12,29,12.69c9.3.55,20.25-.6,26.26,6.51a15,15,0,0,1,3,6.08h-.07c0,52-21,95.25-21,95.25h27.19l.29-.18a182,182,0,0,0,49.39-95l0-.09Z"/><path class="cls-1" d="M809.07,1139.69l-3.41-1.14a11.87,11.87,0,0,1-6.44-4.3q-2-2.87-5.11-12.89L749.74,979q-3.4-11.16-7-15.32A12.5,12.5,0,0,0,723,965.23Q720.6,969,717.46,979l-44.63,145.24q-2.9,9.75-5,12.32t-7.35,3.44q-7.08,1.15-7.08,8,0,7.74,8.92,7.74h37q8.92,0,8.93-8,0-6.87-9.19-8-7.62-1.14-7.61-6.58a29.69,29.69,0,0,1,1.57-8l5-16.61c1.4-4.77,8.4-29.51,8.4-29.51l19.43-67L745,1079h-25.2a9.61,9.61,0,0,0-9.54,8.46l0,.28a9.6,9.6,0,0,0,9.54,10.74h23.13q5.51,0,7.22,1.58t3.54,8.45l4.73,16.61a29.91,29.91,0,0,1,1.31,8q0,5.73-8.14,6.58-10,1.15-10,8.6t7.61,7.45h55.65q9.18,0,9.19-8.6Q814.06,1141.41,809.07,1139.69Z"/><path class="cls-1" d="M2035.69,1139.69l-3.41-1.14a11.8,11.8,0,0,1-6.43-4.3q-2-2.87-5.12-12.89L1976.37,979q-3.42-11.16-7-15.32a11.65,11.65,0,0,0-9.32-4.16,11.78,11.78,0,0,0-10.5,5.73q-2.35,3.74-5.51,13.75l-44.63,145.24q-2.88,9.75-5,12.32t-7.34,3.44q-7.09,1.15-7.09,8,0,7.74,8.92,7.74h37q8.93,0,8.93-8,0-6.87-9.19-8-7.62-1.14-7.61-6.58a30.09,30.09,0,0,1,1.57-8l5-16.61c1.4-4.77,8.4-29.51,8.4-29.51l19.43-67,19.16,67h-25.2a9.61,9.61,0,0,0-9.54,8.46l0,.28a9.61,9.61,0,0,0,9.54,10.74h23.13c3.68,0,6.08.53,7.22,1.58s2.32,3.86,3.54,8.45l4.73,16.61a29.91,29.91,0,0,1,1.31,8q0,5.73-8.14,6.58-10,1.15-10,8.6t7.61,7.45h55.65q9.18,0,9.19-8.6Q2040.68,1141.41,2035.69,1139.69Z"/><path class="cls-1" d="M2918.72,1141.35l-3.41-1.14a11.85,11.85,0,0,1-6.43-4.3q-2-2.87-5.12-12.89L2859.4,980.64q-3.42-11.16-7-15.32a12.49,12.49,0,0,0-19.81,1.57q-2.37,3.74-5.52,13.75l-44.62,145.24q-2.89,9.75-5,12.32t-7.35,3.44q-7.09,1.15-7.09,8,0,7.74,8.93,7.74h37q8.92,0,8.92-8,0-6.87-9.18-8-7.62-1.14-7.61-6.58a29.69,29.69,0,0,1,1.57-8l5-16.61c1.4-4.77,8.4-29.51,8.4-29.51l19.42-67,19.17,67h-25.2a9.6,9.6,0,0,0-9.54,8.46l0,.28a9.61,9.61,0,0,0,9.55,10.74h23.12c3.68,0,6.08.53,7.22,1.58s2.32,3.86,3.55,8.45l4.72,16.61a29.51,29.51,0,0,1,1.31,8q0,5.73-8.13,6.58-10,1.15-10,8.6t7.61,7.45h55.65q9.2,0,9.19-8.6Q2923.71,1143.07,2918.72,1141.35Z"/><path class="cls-1" d="M1278,1143.84l-3.41-1.14a11.85,11.85,0,0,1-6.43-4.3q-2-2.87-5.12-12.89l-44.36-142.38q-3.42-11.16-7-15.32a11.65,11.65,0,0,0-9.32-4.16,11.78,11.78,0,0,0-10.5,5.73q-2.36,3.74-5.51,13.75l-44.62,145.24q-2.9,9.75-5,12.32t-7.35,3.44q-7.1,1.15-7.09,8,0,7.74,8.93,7.74h37q8.93,0,8.92-8,0-6.87-9.18-8-7.62-1.14-7.62-6.58a29.78,29.78,0,0,1,1.58-8l5-16.61c1.39-4.77,8.4-29.51,8.4-29.51l19.42-67,19.16,67h-25.19a9.62,9.62,0,0,0-9.55,8.46l0,.28a9.61,9.61,0,0,0,9.55,10.74h23.12c3.68,0,6.08.53,7.22,1.58s2.32,3.86,3.55,8.45l4.72,16.61a29.91,29.91,0,0,1,1.31,8q0,5.73-8.13,6.58-10,1.15-10,8.6t7.61,7.45h55.65q9.2,0,9.19-8.6Q1283,1145.56,1278,1143.84Z"/><path class="cls-1" d="M839.25,964.66h113.4q4.47,0,5.91,1.29c1,.86,2.06,2.91,3.28,6.16l8.4,23.78a14.17,14.17,0,0,1,1,4.58q0,6.59-7.12,6.59-4.21,0-7.91-6.23-6.85-11.31-11.21-14t-16.21-2.69q-10.29,0-12.67,2.15t-2.37,11.29v127q0,8.87,1.07,11.44c.71,1.72,2.3,2.76,4.79,3.14l7.44.86q6.92.86,6.92,7.73,0,8-12.34,8h-52q-12.33,0-12.33-8,0-6.87,6.82-7.73l7.09-.86q4.46-.57,5.51-5.44c.35-1.15.53-4.2.53-9.17V996.74c0-5.72-.88-9.26-2.63-10.59s-6.21-2-13.39-2q-9.7,0-14.17,2.44t-9.71,10.74l-1.84,2.86q-4.73,7.17-7.88,7.17-7.61,0-7.61-6.59a23.63,23.63,0,0,1,1.58-6.59l7.61-22.06q1.58-4.87,3.41-6.16T839.25,964.66Z"/><path class="cls-1" d="M1115.14,1125.94l-8.14,21.2q-2.1,5.44-4.46,7c-1.58,1-4.46,1.58-8.66,1.58H993.6q-12.35,0-12.34-8,0-6.29,6.83-7.73l4.2-.86q3.94-.86,5-3.29c.69-1.62,1.05-5.4,1.05-11.32V995.89c0-5.92-.36-9.74-1.05-11.46s-2.36-2.77-5-3.15l-4.73-.86c-4.37-.77-6.56-3.34-6.56-7.74q0-8,12.08-8h48.82q12.07,0,12.08,8,0,6.88-6.57,7.74l-6.3.86q-3.67.59-4.72,3.16t-1.05,11.48v120.52q0,14.91,3.41,17.36t23.36,2.44q21,0,26.25-2.32t13.65-15.37q3.95-6.09,7.88-6.09,7.08,0,7.09,6.59C1117,1120.41,1116.36,1122.7,1115.14,1125.94Z"/><path class="cls-1" d="M1165.54,940.31h12.34a17.31,17.31,0,0,0,9.71-3.15l14.7-9.74,15,10.31a14.26,14.26,0,0,0,8.4,2.58H1239c3.32,0,5-1.15,5-3.44,0-1.33-1.41-3.24-4.2-5.73l-30.45-27.5q-4.47-4-7.09-4-3.42,0-7.09,3.44l-30.45,28.07q-4.2,4-4.2,5.73Q1160.55,940.31,1165.54,940.31Z"/><path class="cls-1" d="M1421,1083V995.89q0-8.88-.92-11.46c-.62-1.72-2.23-2.77-4.86-3.15l-4.72-.86c-4.55-.77-6.83-3.34-6.83-7.74q0-8,12.34-8h31.24q12.33,0,12.34,8c0,4.21-2.19,6.78-6.57,7.74l-4.2.86c-2.62.57-4.29,1.67-5,3.29s-1,5.4-1,11.32v158.7q0,4.88-4.47,4.87h-7.35q-5.51,0-6.56-1.15t-1.31-6.87q-.52-7.74-9.71-20.91L1334.85,1020v104.56q0,8.88,1.05,11.32t5,3.29l4.46.86q6.56,1.15,6.56,7.73,0,8-12.34,8h-31.5q-12.33,0-12.33-8,0-6.29,6.82-7.73l4.2-.86q3.95-.86,5-3.29t1-11.32V987.86l-2.1-2.29q-2.37-3.15-9.19-4.87-8.15-2-8.14-8,0-8,8.67-8h28.08q6.83,0,11.55,6.59Z"/><path class="cls-1" d="M1487.36,964.66h113.4q4.46,0,5.91,1.29t3.28,6.16l8.4,23.78a14.44,14.44,0,0,1,1.05,4.58q0,6.59-7.12,6.59-4.23,0-7.91-6.23-6.86-11.31-11.21-14t-16.22-2.69q-10.29,0-12.66,2.15t-2.37,11.29v127q0,8.87,1.06,11.44c.71,1.72,2.31,2.76,4.79,3.14l7.45.86q6.91.86,6.91,7.73,0,8-12.34,8h-52q-12.35,0-12.34-8,0-6.87,6.83-7.73l7.08-.86q4.47-.57,5.52-5.44c.35-1.15.52-4.2.52-9.17V996.74c0-5.72-.88-9.26-2.62-10.59s-6.22-2-13.39-2q-9.72,0-14.17,2.44t-9.72,10.74l-1.83,2.86q-4.73,7.17-7.88,7.17-7.62,0-7.61-6.59a23.51,23.51,0,0,1,1.57-6.59l7.62-22.06c1-3.25,2.18-5.3,3.41-6.16S1484.21,964.66,1487.36,964.66Z"/><path class="cls-1" d="M1646.17,1124.51V995.89q0-8.88-1.05-11.32t-5-3.29l-4.2-.86c-4.55-1-6.82-3.53-6.82-7.74q0-8,12.34-8h46.46q12.08,0,12.07,8c0,4.4-2.19,7-6.56,7.74l-4.72.86q-3.95.57-5,3.15t-1,11.46v128.62q0,8.88,1,11.32t5,3.29l4.46.86q6.83,1.44,6.82,7.73,0,8-12.33,8h-46.47q-12.08,0-12.07-8,0-6.59,6.56-7.73l4.46-.86q3.94-.86,5-3.29T1646.17,1124.51Z"/><path class="cls-1" d="M1730.17,997q0-4.86-1.58-6.59t-6.56-2q-7.87-.57-7.87-7.45,0-6.3,8.4-10.46t27.56-7.3a229.62,229.62,0,0,1,37.27-3.15q45.67,0,68.78,25.49,23.63,26.37,23.62,74.2,0,53.87-29.92,80.21-22.57,19.77-64.58,19.77-28.87,0-51.71-6.88-19.42-5.73-19.42-13.75,0-6.58,6.82-7.45,6-.86,7.61-2.29t1.58-6.88Zm36.49,10.84v107.52q0,14,2.1,17.44,4.74,7.44,20.55,7.44,18.7,0,30-11.44,21.08-21.45,21.08-68.63,0-38-13.31-59.34t-36.74-21.3q-17.92,0-21.87,8.86Q1766.66,992.43,1766.66,1007.87Z"/><path class="cls-1" d="M2268.33,967.24l7.6,27.5a28.36,28.36,0,0,1,1.17,7.16q0,7.46-8.2,7.45-4.68,0-9.66-5.73-20.5-23.77-46-23.78-25.79,0-40.71,21.49t-14.94,58.72q0,48.71,25.94,68.47a51.47,51.47,0,0,0,32.05,11.17q18.66,0,23-9.74,1.74-3.43,1.75-13.46v-17.76c0-5-.2-8-.59-9.17a6.58,6.58,0,0,0-6.12-5.44l-7-.86q-7.58-.85-7.58-7.74,0-8,13.7-8h49.25q13.39,0,13.4,8,0,6.32-7.28,7.74l-4.66.86q-4.38.86-5.4,3.15t-1,11.46v10.88q0,8.33.59,10.6c.38,1.53,1.55,2.58,3.49,3.16l3.79,1.14c2.72.77,4.08,2.77,4.08,6q0,10.59-25.5,19.91a154.82,154.82,0,0,1-53.47,9.31q-43.14,0-69.5-27.07t-26.38-71.48q0-45.26,26-73.05t68.44-27.79a135.3,135.3,0,0,1,35.68,4.87,13.84,13.84,0,0,0,3.8.58c1.75,0,3.51-1.1,5.26-3.3a8,8,0,0,1,6.44-3.29Q2266,959.22,2268.33,967.24Z"/><path class="cls-1" d="M2424,1125.94l-8.14,21.2q-2.1,5.44-4.46,7t-8.66,1.58H2302.41q-12.33,0-12.33-8,0-6.29,6.82-7.73l4.2-.86c2.62-.57,4.29-1.67,5-3.29s1-5.4,1-11.32V995.89q0-8.88-1-11.46c-.7-1.72-2.37-2.77-5-3.15l-4.72-.86c-4.38-.77-6.57-3.34-6.57-7.74q0-8,12.08-8h48.82q12.08,0,12.08,8,0,6.88-6.56,7.74l-6.3.86c-2.46.39-4,1.44-4.73,3.16s-1,5.55-1,11.48v120.52q0,14.91,3.41,17.36t23.37,2.44q21,0,26.25-2.32t13.64-15.37q3.94-6.09,7.88-6.09,7.1,0,7.09,6.59C2425.79,1120.41,2425.17,1122.7,2424,1125.94Z"/><path class="cls-1" d="M2434.45,1060.91q0-45.83,23.36-73.05t63-27.21q39.38,0,63,26.93t23.63,71.9q0,46.13-23.63,73.34T2520.29,1160q-38.86,0-62.35-27.07T2434.45,1060.91Zm39.37.29q0,36.67,12.47,57.44t34.78,20.77q21.53,0,34.26-21.35t12.73-57.43q0-36.37-12.86-57.87t-34.65-21.48q-21.8,0-34.26,21.34T2473.82,1061.2Z"/><path class="cls-1" d="M2719.52,1050q43.83,8.31,43.84,50.7,0,28.08-19.3,43.69t-54.2,15.61a175.16,175.16,0,0,1-47.78-6.3q-20.73-5.73-20.73-14,0-7.44,8.27-7.73c3.2-.19,5.28-1,6.26-2.29s1.56-3.73,1.74-7.17V998.75q0-9.45-5.25-9.74l-3.94-.29q-7.08-.57-7.08-7.73,0-6,9.31-10.31a99.35,99.35,0,0,1,22.71-6.88,205.23,205.23,0,0,1,37.28-3.44q29.92,0,45.93,10.6,19.15,12.62,19.17,36.67Q2755.75,1041.16,2719.52,1050Zm-45.41-41v105.42q0,14.61,3.15,19.2,4.72,6.87,16.27,6.87,14.17,0,22.32-10.6t8.13-29.22q0-16-6.82-26.35t-18.64-11.75l-6.82-.86q-7.62-.86-7.62-9.45c0-5.16,3.24-8.49,9.71-10q23.37-5.43,23.37-32.94,0-13.47-6.43-21.49t-17.46-8q-13.38,0-17.06,9.17Q2674.1,994.17,2674.11,1009.06Z"/><path class="cls-1" d="M3074.16,1125.94l-8.13,21.2c-1.41,3.63-2.89,6-4.47,7s-4.46,1.58-8.66,1.58H2952.62q-12.33,0-12.33-8,0-6.29,6.82-7.73l4.2-.86q3.95-.86,5-3.29t1-11.32V995.89q0-8.88-1-11.46t-5-3.15l-4.72-.86c-4.38-.77-6.57-3.34-6.57-7.74q0-8,12.08-8h48.82q12.07,0,12.08,8,0,6.88-6.56,7.74l-6.3.86c-2.46.39-4,1.44-4.73,3.16s-1,5.55-1,11.48v120.52q0,14.91,3.41,17.36t23.37,2.44q21,0,26.25-2.32t13.65-15.37q3.93-6.09,7.87-6.09,7.1,0,7.09,6.59C3076,1120.41,3075.38,1122.7,3074.16,1125.94Z"/></svg>